# Blender 4.1.1
# www.blender.org
mtllib Rock1.mtl
o Rock1
v -0.998732 0.003798 1.708709
v -0.837548 1.450984 -0.071382
v -2.742910 0.004304 -1.335253
v 1.955310 0.004304 -0.390138
v 1.955310 2.004304 -0.390138
v -0.118921 0.004304 -2.111708
v -0.118921 2.004304 -2.111708
v -1.225922 0.004304 -1.477628
v -1.170133 2.381750 -1.367818
v 1.180658 0.005867 1.015408
v 1.114651 2.004304 0.882888
v -2.673047 0.004304 1.503274
v 0.906598 0.004304 -1.685777
v 0.906598 2.004304 -1.685777
v -0.980485 2.447132 -0.201066
v -1.882693 0.004304 0.890623
v -1.225922 3.471197 -1.477628
v -0.118921 3.471197 -2.111708
v 0.906598 3.292870 -1.685777
v 1.955310 2.965495 -0.390138
v -0.843325 3.292870 -0.069416
v -0.997658 1.003182 1.697300
v -2.742910 1.003799 -1.335253
v -0.118921 1.003799 -2.111708
v 1.961087 1.003799 -0.392105
v 1.196257 1.051099 0.996225
v -1.225922 1.003799 -1.477628
v 0.912376 1.003799 -1.687744
v -2.667269 1.003799 1.501307
v 2.552657 0.004304 -0.419081
v 1.670829 0.003330 0.771291
v 1.671904 1.002714 0.759882
v 1.503945 0.004304 -1.714720
v 1.509723 1.003799 -1.716687
v -3.379658 1.583281 0.479203
v 0.398160 0.004304 -1.896948
v -3.451366 0.004304 0.334509
v 0.398160 2.004304 -1.896948
v -1.257875 2.445112 -0.869256
v -1.557074 0.004304 -0.283525
v 0.398160 3.471197 -1.896948
v -1.033011 3.471197 -0.767589
v 0.398160 1.003799 -1.896948
v -3.451366 1.003799 0.334509
v 0.508631 0.007400 1.894757
v 1.271345 0.009468 1.514903
v 1.286762 1.054700 1.499639
v 0.517621 1.006783 1.884029
v 1.665094 0.006931 1.128692
v -2.749942 1.688456 1.228403
v -2.670622 1.584436 1.502448
v -2.220145 1.857541 1.243603
v 1.346025 2.720243 0.532514
v 0.737067 2.720243 0.699242
v 1.114651 2.300367 0.882888
v 2.294271 1.003799 -0.747412
v 2.139050 1.003799 -0.400728
v 2.306358 1.003491 -0.085261
v 2.556008 0.583931 -0.420222
v 1.671904 1.002714 0.759932
v 1.376192 1.043528 1.411513
v 1.670308 0.586480 1.122471
v -2.906254 1.896300 -0.869795
v -2.251980 2.122121 -1.345418
v -2.742910 1.499332 -1.335253
v -1.752408 1.227392 0.714962
v -1.984416 0.004304 -1.406440
v 0.090963 0.004833 1.362058
v -2.277870 0.004304 1.196948
v -1.984416 1.003799 -1.406440
v 0.099300 1.027140 1.346763
v -2.504220 0.004304 0.025492
v 0.889988 0.008434 1.704830
v 0.902192 1.030742 1.691834
v -0.799194 1.700726 -0.070910
v 1.234611 1.300841 0.996698
v -1.746177 1.468403 0.766637
v 0.105531 1.268152 1.398437
vn -0.5310 0.0515 -0.8458
vn 0.7773 0.0057 -0.6291
vn 0.3204 -0.1288 0.9385
vn 0.0002 -1.0000 0.0006
vn -0.8250 0.0474 0.5631
vn 0.7773 -0.0057 -0.6291
vn 0.0004 -1.0000 -0.0006
vn 0.8548 0.0676 0.5145
vn -0.9321 0.0813 -0.3531
vn -0.0000 -1.0000 -0.0000
vn -0.5435 -0.0479 -0.8381
vn 0.6810 0.0338 0.7315
vn 0.3802 0.0020 -0.9249
vn -0.4518 0.0589 0.8902
vn -0.4579 -0.0395 0.8881
vn 0.1944 0.9547 0.2252
vn 0.3836 -0.0000 -0.9235
vn 0.7773 -0.0000 -0.6291
vn 0.1406 0.9206 0.3644
vn -0.9316 0.1383 0.3363
vn -0.1192 0.0071 0.9928
vn 0.3802 -0.0020 -0.9249
vn -0.0934 -0.0000 -0.9956
vn 0.0546 0.9984 0.0147
vn 0.0033 -1.0000 0.0051
vn -0.0484 -0.0017 -0.9988
vn -0.4970 -0.0000 -0.8677
vn -0.9206 -0.0000 -0.3906
vn -0.0000 1.0000 -0.0000
vn 0.8018 0.0015 0.5976
vn 1.0000 -0.0039 0.0079
vn -0.0027 -1.0000 -0.0015
vn -0.8312 0.0029 0.5560
vn -0.9934 0.0797 0.0823
vn -0.0652 0.0509 -0.9966
vn 0.8345 -0.0000 0.5511
vn 0.4463 0.0058 0.8949
vn 0.0924 0.9955 -0.0219
vn -0.0143 0.9987 0.0490
vn -0.1224 0.0116 0.9924
vn 0.7009 0.0006 0.7132
vn 0.0002 -1.0000 0.0084
vn -0.2878 0.8648 0.4115
vn 0.2205 0.5505 0.8052
vn 0.7092 0.7049 -0.0126
vn 0.8693 0.3227 0.3743
vn -0.3049 0.9443 0.1237
vn 0.1310 0.9812 0.1419
vn -0.6185 0.4774 -0.6242
vn -0.3039 0.9515 0.0478
vn -0.0256 0.9995 0.0184
vn 0.4463 0.0063 0.8949
vn 0.0025 -1.0000 0.0029
vn 0.0001 -1.0000 -0.0013
vn 0.0040 0.9756 0.2196
vn 0.0339 0.9642 0.2630
vn -0.3354 -0.1892 0.9229
vn 0.4532 -0.0679 -0.8888
vn -0.6700 0.1384 -0.7293
vt 0.273827 0.847668
vt 0.273827 0.897387
vt 0.275161 0.897387
vt 0.275161 0.847668
vt 0.276397 0.847668
vt 0.276397 0.897387
vt 0.277661 0.897387
vt 0.277661 0.847668
vt 0.277396 0.850279
vt 0.277391 0.850266
vt 0.273035 0.797999
vt 0.276397 0.797999
vt 0.277661 0.797999
vt 0.276648 0.797999
vt 0.272083 0.847668
vt 0.272083 0.876522
vt 0.271802 0.897387
vt 0.271144 0.897387
vt 0.271144 0.847668
vt 0.277117 0.797999
vt 0.277117 0.847668
vt 0.278063 0.847668
vt 0.278381 0.826803
vt 0.278381 0.797999
vt 0.272559 0.797999
vt 0.276172 0.797999
vt 0.276648 0.897387
vt 0.276657 0.849938
vt 0.271779 0.897387
vt 0.271998 0.872293
vt 0.271998 0.847668
vt 0.272286 0.797999
vt 0.273428 0.797999
vt 0.273827 0.961420
vt 0.275161 0.961420
vt 0.274288 0.853715
vt 0.274288 0.897387
vt 0.272466 0.897387
vt 0.272083 0.876522
vt 0.273185 0.850691
vt 0.275784 0.797999
vt 0.275784 0.847668
vt 0.275784 0.897387
vt 0.276648 0.940555
vt 0.276193 0.961420
vt 0.274288 0.961420
vt 0.279502 0.969076
vt 0.277777 0.969076
vt 0.278006 0.969076
vt 0.280115 0.969076
vt 0.275784 0.961420
vt 0.276397 0.961420
vt 0.277661 0.961420
vt 0.279911 0.969076
vt 0.280645 0.969076
vt 0.281379 0.969076
vt 0.274059 0.897387
vt 0.274059 0.961420
vt 0.275695 0.797999
vt 0.275695 0.847668
vt 0.272083 0.797999
vt 0.272913 0.797999
vt 0.272913 0.847668
vt 0.273827 0.797999
vt 0.275409 0.887297
vt 0.275420 0.887271
vt 0.275412 0.887297
vt 0.275404 0.887297
vt 0.275406 0.887297
vt 0.276172 0.797999
vt 0.275161 0.797999
vt 0.271144 0.797999
vt 0.271998 0.797999
vt 0.274439 0.870968
vt 0.274425 0.870968
vt 0.274423 0.870968
vt 0.274420 0.870968
vt 0.274431 0.870968
vt 0.278093 0.847668
vt 0.277368 0.847668
vt 0.277368 0.797999
vt 0.277368 0.826802
vt 0.278879 0.969076
vt 0.277545 0.969076
vt 0.272569 0.897387
vt 0.276927 0.961420
vt 0.276176 0.848803
vt 0.275418 0.887277
vt 0.275443 0.887388
vt 0.275448 0.887401
vt 0.276821 0.849414
vt 0.270788 0.915268
vt 0.270101 0.895941
vt 0.270293 0.906397
vt 0.273184 0.979118
vt 0.274679 0.982954
vt 0.273044 0.968663
vt 0.273753 0.893254
vt 0.271929 0.904930
vt 0.271928 0.904930
vt 0.273913 0.882799
vt 0.275700 0.871229
vt 0.274230 0.882894
vt 0.275700 0.860773
vt 0.273270 0.943410
vt 0.270355 0.943410
vt 0.271013 0.943410
vt 0.271677 0.943410
vt 0.273499 0.943410
vt 0.274709 0.934985
vt 0.277151 0.952688
vt 0.274928 0.909890
vt 0.273038 0.943410
vt 0.271780 0.943410
vt 0.270990 0.943410
vt 0.275438 0.887375
vt 0.275489 0.887401
vt 0.275477 0.887367
vt 0.278895 0.907386
vt 0.278861 0.907408
vt 0.278855 0.907395
vt 0.278882 0.907352
vt 0.277430 0.850258
vt 0.278610 0.812829
vt 0.276241 0.816605
vt 0.275138 0.813582
s 0
usemtl Texture
f 27/1/1 9/2/1 7/3/1 24/4/1
f 28/5/2 14/6/2 5/7/2 25/8/2
f 71/9/3 26/10/3 76/10/3 78/9/3
f 16/11/4 13/12/4 4/13/4 10/14/4
f 29/15/5 51/16/5 50/17/5 35/18/5 44/19/5
f 33/20/6 34/21/6 56/22/6 59/23/6 30/24/6
f 69/25/7 16/11/7 10/14/7 68/26/7
f 25/8/8 5/7/8 11/27/8 26/28/8
f 44/19/9 35/18/9 63/29/9 65/30/9 23/31/9
f 72/32/10 40/33/10 16/11/10 69/25/10
f 7/3/11 9/2/11 17/34/11 18/35/11
f 2/36/12 15/37/12 52/38/12 51/39/12 29/15/12 66/40/12
f 40/33/10 36/41/10 13/12/10 16/11/10
f 43/42/13 38/43/13 14/6/13 28/5/13
f 26/28/14 11/27/14 15/37/14 2/36/14
f 15/37/15 11/27/15 55/44/15 54/45/15 21/46/15
f 41/47/16 42/48/16 21/49/16 19/50/16
f 38/43/17 7/3/17 18/35/17 41/51/17
f 5/7/18 14/6/18 19/52/18 20/53/18
f 21/49/19 54/54/19 53/55/19 20/56/19
f 39/57/20 15/37/20 21/46/20 42/58/20
f 1/59/21 22/60/21 29/15/21 12/61/21
f 36/41/22 43/42/22 28/5/22 13/12/22
f 67/62/23 70/63/23 27/1/23 8/64/23
f 25/65/24 26/66/24 32/67/24 58/68/24 57/69/24
f 68/26/25 10/14/25 46/14/25 73/70/25
f 13/12/26 28/5/26 34/21/26 33/20/26
f 8/64/27 27/1/27 24/4/27 6/71/27
f 37/72/28 44/19/28 23/31/28 3/73/28
f 28/74/29 25/75/29 57/76/29 56/77/29 34/78/29
f 30/24/30 59/23/30 58/79/30 32/80/30 31/81/30
f 31/81/31 32/80/31 60/80/31 62/82/31 49/81/31
f 4/13/10 13/12/10 33/20/10 30/24/10
f 10/14/32 4/13/32 30/24/32 31/81/32
f 12/61/33 29/15/33 44/19/33 37/72/33
f 6/71/17 24/4/17 43/42/17 36/41/17
f 9/2/34 39/57/34 42/58/34 17/34/34
f 14/6/17 38/43/17 41/51/17 19/52/17
f 18/83/29 17/84/29 42/48/29 41/47/29
f 24/4/17 7/3/17 38/43/17 43/42/17
f 8/64/10 6/71/10 36/41/10 40/33/10
f 23/31/35 65/30/35 64/85/35 9/2/35 27/1/35 70/63/35
f 67/62/10 8/64/10 40/33/10 72/32/10
f 11/27/36 5/7/36 20/53/36 53/86/36 55/44/36
f 73/70/37 74/87/37 48/60/37 45/59/37
f 32/67/38 26/66/38 47/66/38 61/88/38 60/67/38
f 71/89/39 22/90/39 48/90/39 74/89/39
f 22/60/40 1/59/40 45/59/40 48/60/40
f 47/28/41 46/14/41 49/81/41 62/82/41 61/91/41
f 10/14/42 31/81/42 49/81/42 46/14/42
f 50/92/43 51/93/43 52/94/43
f 53/95/44 54/96/44 55/97/44
f 56/98/45 57/99/45 58/100/45 59/101/45
f 60/102/46 61/103/46 62/104/46
f 39/105/47 35/106/47 50/107/47 52/108/47 15/109/47
f 19/50/48 21/49/48 20/56/48
f 63/110/49 64/111/49 65/112/49
f 9/113/50 64/114/50 63/115/50 35/106/50 39/105/50
f 26/116/51 71/89/51 74/89/51 47/116/51
f 46/14/52 47/28/52 74/87/52 73/70/52
f 3/73/10 67/62/10 72/32/10 37/72/10
f 1/59/53 68/26/53 73/70/53 45/59/53
f 3/73/23 23/31/23 70/63/23 67/62/23
f 37/72/10 72/32/10 69/25/10 12/61/10
f 12/61/54 69/25/54 68/26/54 1/59/54
f 29/117/55 22/90/55 71/89/55 66/118/55
f 77/119/56 78/120/56 76/121/56 75/122/56
f 66/123/57 71/9/57 78/9/57 77/123/57
f 26/124/58 2/125/58 75/125/58 76/124/58
f 2/125/59 66/126/59 77/126/59 75/125/59
