# Blender 4.1.1
# www.blender.org
mtllib Tree3.mtl
o Tree3
v 0.000000 -0.830585 -0.286926
v 0.017159 0.579935 -0.114994
v 0.202888 -0.830585 -0.202887
v 0.052371 0.534867 -0.073646
v 0.286926 -0.830585 0.000000
v 0.096247 0.559357 -0.024090
v 0.202888 -0.830585 0.202887
v 0.035392 0.525454 0.127108
v 0.000000 -0.830585 0.286926
v -0.036571 0.553155 0.169720
v -0.202887 -0.830585 0.202887
v -0.128503 0.509374 0.116517
v -0.286926 -0.830585 0.000000
v -0.165350 0.572672 0.006123
v -0.202887 -0.830585 -0.202887
v -0.107545 0.505070 -0.045227
v -0.096722 2.973955 0.050480
v -0.075038 2.974468 0.059473
v -0.066046 2.974133 0.081161
v -0.075014 2.973148 0.102840
v -0.096688 2.972089 0.111809
v -0.118372 2.971576 0.102816
v -0.127363 2.971910 0.081128
v -0.118395 2.972895 0.059450
v 0.136050 1.462401 -0.232995
v 0.115394 1.492829 -0.173505
v 0.144230 1.503145 -0.110626
v 0.205666 1.487305 -0.081193
v 0.263714 1.454588 -0.102446
v 0.284370 1.424160 -0.161937
v 0.255534 1.413844 -0.224815
v 0.194098 1.429684 -0.254249
v 0.011129 0.650369 0.131341
v 0.104910 0.628914 -0.015882
v -0.145608 0.673190 -0.001275
v -0.033103 0.703802 0.039760
v -0.068060 0.706105 -0.060023
v 0.069698 0.673982 -0.057230
v 0.089857 0.681277 0.061431
v 0.025822 0.649492 -0.106786
v -0.480300 1.127699 0.463074
v -0.413858 1.130426 0.487822
v -0.493051 1.139561 0.394291
v -0.360169 1.145015 0.443788
v -0.439362 1.154150 0.350257
v -0.372921 1.156877 0.375006
v -0.431281 1.742474 0.459323
v -0.389583 1.752383 0.476883
v -0.442910 1.757815 0.417197
v -0.359515 1.777632 0.452316
v -0.412841 1.783064 0.392631
v -0.371144 1.792973 0.410190
v -0.657880 2.191945 0.686885
v -0.647689 2.192420 0.690685
v -0.659851 2.193820 0.676343
v -0.639469 2.194770 0.683944
v -0.651632 2.196170 0.669602
v -0.641441 2.196645 0.673403
v -0.669897 0.930698 -0.447768
v -0.695580 0.971672 -0.391646
v -0.606415 0.949242 -0.481151
v -0.657782 1.031190 -0.368907
v -0.568617 1.008760 -0.458412
v -0.594300 1.049734 -0.402290
v -0.863723 2.037745 -0.724703
v -0.867014 2.042244 -0.707900
v -0.847352 2.039342 -0.731249
v -0.853935 2.048340 -0.697644
v -0.834273 2.045438 -0.720993
v -0.837565 2.049937 -0.704191
v 0.346587 0.865563 -0.329382
v 0.311673 0.889175 -0.345369
v 0.367693 0.879105 -0.291922
v 0.318972 0.939870 -0.286437
v 0.297865 0.926329 -0.323897
v 0.353886 0.916259 -0.270450
v 0.536428 1.404619 -0.494865
v 0.516240 1.412333 -0.500315
v 0.545142 1.409331 -0.474900
v 0.513481 1.429472 -0.465834
v 0.504767 1.424760 -0.485799
v 0.533669 1.421758 -0.460384
v -0.059536 -0.134671 -0.117154
v 0.037142 -0.160838 -0.061570
v 0.094194 -0.146619 0.043437
v 0.027284 -0.166304 0.207458
v -0.090732 -0.150220 0.263776
v -0.220343 -0.175640 0.201309
v -0.273314 -0.138888 0.060979
v -0.208174 -0.178139 -0.045069
v -0.060695 3.146224 0.043614
v -0.055764 3.144989 0.045959
v -0.053465 3.145793 0.050999
v -0.055144 3.148167 0.055783
v -0.059818 3.150720 0.057508
v -0.064750 3.151956 0.055163
v -0.067049 3.151151 0.050123
v -0.065369 3.148777 0.045339
vn 0.5764 -0.0433 -0.8160
vn 0.8413 -0.0410 -0.5391
vn 0.9242 0.0335 0.3803
vn 0.4760 0.0881 0.8750
vn -0.4960 0.1620 0.8531
vn -0.9047 0.1686 0.3913
vn -0.7554 0.0874 -0.6494
vn -0.4808 0.0622 -0.8746
vn 0.9439 0.1707 0.2826
vn -0.9458 -0.1008 -0.3086
vn -0.4416 -0.2047 0.8736
vn -0.8811 -0.2177 0.4198
vn -0.3060 0.1297 -0.9431
vn 0.4440 0.2520 -0.8599
vn 0.8692 0.2614 -0.4197
vn 0.3355 -0.0531 0.9406
vn -0.6258 0.3018 0.7192
vn -0.7672 0.0873 -0.6354
vn 0.5540 0.0672 0.8298
vn -0.6198 0.3114 0.7204
vn 0.9325 -0.1447 0.3309
vn 0.5889 -0.2933 -0.7531
vn -0.4453 -0.0781 -0.8920
vn 0.7655 -0.2986 -0.5700
vn -0.6455 0.7478 0.1553
vn 0.1126 0.7841 0.6103
vn 0.7756 -0.1342 0.6168
vn 0.9295 -0.1780 0.3231
vn -0.6794 0.1092 -0.7256
vn 0.5948 0.0884 0.7990
vn 0.5738 0.8124 -0.1038
vn 0.1524 0.6505 -0.7441
vn -0.6540 0.0796 -0.7523
vn 0.3589 0.0491 -0.9321
vn 0.7893 0.6133 -0.0308
vn -0.2202 -0.5731 0.7893
vn 0.6367 -0.0090 0.7711
vn -0.8606 -0.5087 0.0248
vn 0.6345 -0.0034 0.7729
vn 0.8228 0.5678 -0.0269
vn -0.9700 0.0744 0.2315
vn 0.9769 0.0055 -0.2134
vn 0.6368 -0.0112 0.7710
vn -0.3675 0.0328 0.9295
vn -0.1182 0.9736 0.1953
vn -0.2299 -0.5302 0.8161
vn 0.1889 0.6209 -0.7608
vn -0.6727 0.1017 -0.7329
vn -0.8759 -0.4773 0.0702
vn -0.6444 0.1199 0.7552
vn 0.3476 0.3479 0.8707
vn -0.6769 -0.7106 0.1920
vn -0.5342 0.1117 0.8380
vn 0.5162 0.0195 -0.8562
vn -0.0273 -0.7157 -0.6979
vn -0.2074 0.9341 -0.2907
vn -0.9456 -0.2231 -0.2366
vn 0.9380 0.2879 0.1932
vn 0.5908 -0.0533 -0.8050
vn -0.3701 -0.2853 -0.8841
vn -0.1337 0.3886 0.9116
vn 0.1662 -0.3408 -0.9253
vn 0.0157 0.6502 0.7596
vn 0.6656 -0.7242 -0.1805
vn -0.7073 0.1576 -0.6891
vn 0.0303 -0.6221 -0.7823
vn 0.4177 0.8265 -0.3774
vn -0.7468 0.0967 -0.6579
vn 0.8594 -0.3993 -0.3194
vn -0.8445 0.4457 0.2969
vn 0.7848 -0.0483 0.6178
vn -0.4182 0.1954 -0.8871
vn -0.8939 0.0774 -0.4415
vn -0.9293 -0.0189 0.3689
vn -0.4022 -0.0156 0.9154
vn 0.4029 0.0924 0.9106
vn 0.8953 0.2310 0.3807
vn 0.8662 0.2854 -0.4101
vn 0.4262 0.2672 -0.8643
vn -0.8965 0.2387 -0.3732
vn -0.8643 0.3523 0.3589
vn -0.3611 0.3379 0.8692
vn 0.9276 -0.0037 0.3734
vn -0.3738 0.0398 -0.9266
vn 0.9137 -0.1340 -0.3836
vn 0.3866 -0.1168 -0.9148
vn 0.3782 0.1985 0.9042
vt 0.513261 0.793230
vt 0.512717 0.834063
vt 0.512713 0.831488
vt 0.512897 0.791734
vt 0.512697 0.832887
vt 0.513123 0.792547
vt 0.514059 0.830950
vt 0.514608 0.791422
vt 0.514841 0.832533
vt 0.515807 0.792341
vt 0.515185 0.830031
vt 0.516368 0.790888
vt 0.514780 0.833648
vt 0.515898 0.792988
vt 0.514047 0.829786
vt 0.514779 0.790745
vt 0.511004 0.884042
vt 0.510492 0.882303
vt 0.514516 0.970871
vt 0.514713 0.970815
vt 0.511135 0.884489
vt 0.511648 0.886227
vt 0.514961 0.970744
vt 0.514764 0.970801
vt 0.511821 0.886817
vt 0.511555 0.885912
vt 0.514925 0.970755
vt 0.515028 0.970725
vt 0.510585 0.882619
vt 0.514552 0.970861
vt 0.510318 0.881714
vt 0.514449 0.970890
vt 0.514025 0.841141
vt 0.514261 0.838088
vt 0.513671 0.841273
vt 0.514591 0.839392
vt 0.513264 0.839854
vt 0.512684 0.836862
vt 0.512688 0.839437
vt 0.512704 0.838038
vt 0.509482 0.854630
vt 0.509407 0.853857
vt 0.515406 0.860908
vt 0.516070 0.859849
vt 0.509095 0.851158
vt 0.509326 0.853281
vt 0.519523 0.866041
vt 0.518865 0.866875
vt 0.514877 0.858567
vt 0.518533 0.867031
vt 0.519298 0.901369
vt 0.518930 0.902812
vt 0.518735 0.903378
vt 0.518860 0.866353
vt 0.519518 0.865519
vt 0.519849 0.865363
vt 0.519275 0.901058
vt 0.518907 0.902501
vt 0.522350 0.926337
vt 0.522451 0.926203
vt 0.522300 0.926444
vt 0.519471 0.900492
vt 0.522452 0.926283
vt 0.522501 0.926176
vt 0.522351 0.926417
vt 0.516206 0.856448
vt 0.515491 0.917970
vt 0.515524 0.917622
vt 0.515333 0.918061
vt 0.515678 0.854106
vt 0.515013 0.855166
vt 0.515239 0.917456
vt 0.515398 0.917365
vt 0.515207 0.917804
vt 0.506864 0.882166
vt 0.506977 0.882607
vt 0.509020 0.850384
vt 0.509176 0.851734
vt 0.506747 0.881627
vt 0.506634 0.881187
vt 0.506692 0.881456
vt 0.506919 0.882338
vt 0.513779 0.753464
vt 0.511795 0.753464
vt 0.515625 0.753464
vt 0.516251 0.753464
vt 0.515290 0.753464
vt 0.513305 0.753464
vt 0.511459 0.753464
vt 0.510834 0.753464
vt 0.514334 0.980986
vt 0.514293 0.980851
vt 0.514348 0.981032
vt 0.514327 0.980962
vt 0.514241 0.980680
vt 0.514282 0.980816
vt 0.514248 0.980705
vt 0.514227 0.980634
s 0
usemtl Texture
f 83/1/1 2/2/1 4/3/1 84/4/1
f 84/4/2 4/3/2 6/5/2 85/6/2
f 85/6/3 6/5/3 8/7/3 86/8/3
f 86/8/4 8/7/4 10/9/4 87/10/4
f 87/10/5 10/9/5 12/11/5 88/12/5
f 88/12/6 12/11/6 14/13/6 89/14/6
f 89/14/7 14/13/7 16/15/7 90/16/7
f 90/16/8 16/15/8 2/2/8 83/1/8
f 29/17/9 30/18/9 19/19/9 20/20/9
f 25/21/10 26/22/10 23/23/10 24/24/10
f 27/25/11 28/26/11 21/27/11 22/28/11
f 26/22/12 27/25/12 22/28/12 23/23/12
f 32/29/13 25/21/13 24/24/13 17/30/13
f 31/31/14 32/29/14 17/30/14 18/32/14
f 30/18/15 31/31/15 18/32/15 19/19/15
f 28/26/16 29/17/16 20/20/16 21/27/16
f 36/33/17 33/34/17 28/26/17 27/25/17
f 37/35/18 35/36/18 26/22/18 25/21/18
f 33/34/19 39/37/19 29/17/19 28/26/19
f 35/36/20 36/33/20 27/25/20 26/22/20
f 39/37/21 34/38/21 30/18/21 29/17/21
f 38/39/22 40/40/22 32/29/22 31/31/22
f 40/40/23 37/35/23 25/21/23 32/29/23
f 34/38/24 38/39/24 31/31/24 30/18/24
f 40/40/25 38/39/25 74/41/25 75/42/25
f 35/36/26 37/35/26 64/43/26 62/44/26
f 34/38/27 6/5/27 73/45/27 76/46/27
f 8/7/28 6/5/28 34/38/28 39/37/28
f 35/36/29 14/13/29 43/47/29 45/48/29
f 10/9/30 8/7/30 39/37/30 33/34/30
f 37/35/31 40/40/31 63/49/31 64/43/31
f 36/33/32 35/36/32 45/48/32 46/50/32
f 45/48/33 43/47/33 49/51/33 51/52/33
f 46/50/34 45/48/34 51/52/34 52/53/34
f 33/34/35 36/33/35 46/50/35 44/54/35
f 12/11/36 10/9/36 42/55/36 41/56/36
f 10/9/37 33/34/37 44/54/37 42/55/37
f 14/13/38 12/11/38 41/56/38 43/47/38
f 48/57/39 50/58/39 56/59/39 54/60/39
f 50/58/40 52/53/40 58/61/40 56/59/40
f 43/47/41 41/56/41 47/62/41 49/51/41
f 44/54/42 46/50/42 52/53/42 50/58/42
f 42/55/43 44/54/43 50/58/43 48/57/43
f 41/56/44 42/55/44 48/57/44 47/62/44
f 55/63/45 53/64/45 58/61/45 57/65/45
f 53/64/45 54/60/45 56/59/45 58/61/45
f 47/62/46 48/57/46 54/60/46 53/64/46
f 52/53/47 51/52/47 57/65/47 58/61/47
f 51/52/48 49/51/48 55/63/48 57/65/48
f 49/51/49 47/62/49 53/64/49 55/63/49
f 60/66/50 62/44/50 68/67/50 66/68/50
f 62/44/51 64/43/51 70/69/51 68/67/51
f 16/15/52 14/13/52 60/66/52 59/70/52
f 14/13/53 35/36/53 62/44/53 60/66/53
f 40/40/54 2/2/54 61/71/54 63/49/54
f 2/2/55 16/15/55 59/70/55 61/71/55
f 67/72/56 65/73/56 70/69/56 69/74/56
f 65/73/56 66/68/56 68/67/56 70/69/56
f 59/70/57 60/66/57 66/68/57 65/73/57
f 64/43/58 63/49/58 69/74/58 70/69/58
f 63/49/59 61/71/59 67/72/59 69/74/59
f 61/71/60 59/70/60 65/73/60 67/72/60
f 74/41/61 76/46/61 82/75/61 80/76/61
f 71/77/62 72/78/62 78/79/62 77/80/62
f 38/39/63 34/38/63 76/46/63 74/41/63
f 6/5/64 4/3/64 71/77/64 73/45/64
f 2/2/65 40/40/65 75/42/65 72/78/65
f 4/3/66 2/2/66 72/78/66 71/77/66
f 79/81/67 77/80/67 80/76/67 82/75/67
f 77/80/67 78/79/67 81/82/67 80/76/67
f 72/78/68 75/42/68 81/82/68 78/79/68
f 73/45/69 71/77/69 77/80/69 79/81/69
f 75/42/70 74/41/70 80/76/70 81/82/70
f 76/46/71 73/45/71 79/81/71 82/75/71
f 15/83/72 90/16/72 83/1/72 1/84/72
f 13/85/73 89/14/73 90/16/73 15/83/73
f 11/86/74 88/12/74 89/14/74 13/85/74
f 9/87/75 87/10/75 88/12/75 11/86/75
f 7/88/76 86/8/76 87/10/76 9/87/76
f 5/89/77 85/6/77 86/8/77 7/88/77
f 3/90/78 84/4/78 85/6/78 5/89/78
f 1/84/79 83/1/79 84/4/79 3/90/79
f 24/24/80 23/23/80 97/91/80 98/92/80
f 23/23/81 22/28/81 96/93/81 97/91/81
f 22/28/82 21/27/82 95/94/82 96/93/82
f 20/20/83 19/19/83 93/95/83 94/96/83
f 17/30/84 24/24/84 98/92/84 91/97/84
f 19/19/85 18/32/85 92/98/85 93/95/85
f 18/32/86 17/30/86 91/97/86 92/98/86
f 21/27/87 20/20/87 94/96/87 95/94/87
